<svg width="300" height="79" viewBox="0 0 300 79" fill="none" xmlns="http://www.w3.org/2000/svg">
<path d="M4.032 19.168C3.22933 19.168 2.492 19.028 1.82 18.748C1.15733 18.4587 0.662667 18.0947 0.336 17.656L1.218 16.578C1.51667 16.9233 1.92267 17.1987 2.436 17.404C2.94933 17.6093 3.46267 17.712 3.976 17.712C4.63867 17.712 5.15667 17.586 5.53 17.334C5.91267 17.0727 6.104 16.7227 6.104 16.284C6.104 15.4067 5.35267 14.968 3.85 14.968H1.974V13.526H3.85C4.47533 13.526 4.97933 13.4233 5.362 13.218C5.754 13.0127 5.95 12.7047 5.95 12.294C5.95 11.874 5.754 11.552 5.362 11.328C4.97 11.0947 4.47533 10.978 3.878 10.978C2.85133 10.978 1.99267 11.3233 1.302 12.014L0.462 10.992C0.835333 10.5533 1.33467 10.1987 1.96 9.928C2.59467 9.65733 3.28533 9.522 4.032 9.522C5.068 9.522 5.91733 9.75067 6.58 10.208C7.252 10.6653 7.588 11.2767 7.588 12.042C7.588 12.6207 7.38267 13.1013 6.972 13.484C6.57067 13.8573 6.09933 14.0907 5.558 14.184C6.09 14.2307 6.58467 14.4547 7.042 14.856C7.49933 15.2573 7.728 15.7893 7.728 16.452C7.728 17.2453 7.378 17.8987 6.678 18.412C5.98733 18.916 5.10533 19.168 4.032 19.168ZM14.9329 19H13.4629V18.272C12.9402 18.8693 12.2122 19.168 11.2789 19.168C10.6629 19.168 10.1169 18.972 9.64086 18.58C9.16486 18.1787 8.92686 17.628 8.92686 16.928C8.92686 16.2093 9.16019 15.6633 9.62686 15.29C10.1029 14.9167 10.6535 14.73 11.2789 14.73C12.2402 14.73 12.9682 15.0193 13.4629 15.598V14.59C13.4629 14.198 13.3182 13.89 13.0289 13.666C12.7395 13.442 12.3569 13.33 11.8809 13.33C11.1249 13.33 10.4575 13.6147 9.87886 14.184L9.27686 13.162C10.0422 12.434 10.9895 12.07 12.1189 12.07C12.9495 12.07 13.6262 12.266 14.1489 12.658C14.6715 13.05 14.9329 13.6707 14.9329 14.52V19ZM11.8529 18.16C12.5902 18.16 13.1269 17.9267 13.4629 17.46V16.438C13.1269 15.9713 12.5902 15.738 11.8529 15.738C11.4329 15.738 11.0875 15.85 10.8169 16.074C10.5462 16.298 10.4109 16.592 10.4109 16.956C10.4109 17.32 10.5462 17.614 10.8169 17.838C11.0875 18.0527 11.4329 18.16 11.8529 18.16ZM21.9627 12.238V13.526H18.3087V19H16.8387V12.238H21.9627ZM26.2208 19.168C25.1755 19.168 24.3355 18.8273 23.7008 18.146C23.0661 17.4553 22.7488 16.6107 22.7488 15.612C22.7488 14.6133 23.0661 13.7733 23.7008 13.092C24.3355 12.4107 25.1755 12.07 26.2208 12.07C27.2755 12.07 28.1201 12.4107 28.7548 13.092C29.3895 13.7733 29.7068 14.6133 29.7068 15.612C29.7068 16.62 29.3895 17.4647 28.7548 18.146C28.1201 18.8273 27.2755 19.168 26.2208 19.168ZM26.2208 17.866C26.8275 17.866 27.3035 17.6513 27.6488 17.222C28.0035 16.7833 28.1808 16.2467 28.1808 15.612C28.1808 14.9867 28.0035 14.4593 27.6488 14.03C27.3035 13.5913 26.8275 13.372 26.2208 13.372C25.6235 13.372 25.1475 13.5913 24.7928 14.03C24.4475 14.4593 24.2748 14.9867 24.2748 15.612C24.2748 16.2467 24.4475 16.7833 24.7928 17.222C25.1475 17.6513 25.6235 17.866 26.2208 17.866ZM30.4942 19.168V17.964C30.7835 17.964 31.0122 17.7773 31.1802 17.404C31.3575 17.0307 31.5022 16.4053 31.6142 15.528L32.0202 12.238H37.2422V19H35.7722V13.526H33.3222L33.0842 15.696C32.9535 16.9093 32.6782 17.7913 32.2582 18.342C31.8382 18.8927 31.2502 19.168 30.4942 19.168ZM42.2032 19.168C41.1579 19.168 40.3179 18.8273 39.6832 18.146C39.0486 17.4553 38.7312 16.6107 38.7312 15.612C38.7312 14.6133 39.0486 13.7733 39.6832 13.092C40.3179 12.4107 41.1579 12.07 42.2032 12.07C43.2579 12.07 44.1026 12.4107 44.7372 13.092C45.3719 13.7733 45.6892 14.6133 45.6892 15.612C45.6892 16.62 45.3719 17.4647 44.7372 18.146C44.1026 18.8273 43.2579 19.168 42.2032 19.168ZM42.2032 17.866C42.8099 17.866 43.2859 17.6513 43.6312 17.222C43.9859 16.7833 44.1632 16.2467 44.1632 15.612C44.1632 14.9867 43.9859 14.4593 43.6312 14.03C43.2859 13.5913 42.8099 13.372 42.2032 13.372C41.6059 13.372 41.1299 13.5913 40.7752 14.03C40.4299 14.4593 40.2572 14.9867 40.2572 15.612C40.2572 16.2467 40.4299 16.7833 40.7752 17.222C41.1299 17.6513 41.6059 17.866 42.2032 17.866ZM51.3206 19H47.1766V12.238H51.2226C51.8479 12.238 52.3379 12.4013 52.6926 12.728C53.0473 13.0547 53.2246 13.47 53.2246 13.974C53.2246 14.366 53.1173 14.6973 52.9026 14.968C52.6879 15.2387 52.4173 15.4207 52.0906 15.514C52.4546 15.598 52.7579 15.7987 53.0006 16.116C53.2433 16.424 53.3646 16.774 53.3646 17.166C53.3646 17.7073 53.1826 18.1507 52.8186 18.496C52.4639 18.832 51.9646 19 51.3206 19ZM51.0126 17.712C51.2739 17.712 51.4793 17.6467 51.6286 17.516C51.7779 17.376 51.8526 17.1893 51.8526 16.956C51.8526 16.7413 51.7779 16.5593 51.6286 16.41C51.4793 16.2607 51.2739 16.186 51.0126 16.186H48.6466V17.712H51.0126ZM50.9706 14.898C51.2039 14.898 51.3859 14.8373 51.5166 14.716C51.6566 14.5853 51.7266 14.422 51.7266 14.226C51.7266 14.0113 51.6566 13.8433 51.5166 13.722C51.3859 13.5913 51.2039 13.526 50.9706 13.526H48.6466V14.898H50.9706ZM58.2403 19.168C57.195 19.168 56.355 18.8273 55.7203 18.146C55.0857 17.4553 54.7683 16.6107 54.7683 15.612C54.7683 14.6133 55.0857 13.7733 55.7203 13.092C56.355 12.4107 57.195 12.07 58.2403 12.07C59.295 12.07 60.1397 12.4107 60.7743 13.092C61.409 13.7733 61.7263 14.6133 61.7263 15.612C61.7263 16.62 61.409 17.4647 60.7743 18.146C60.1397 18.8273 59.295 19.168 58.2403 19.168ZM58.2403 17.866C58.847 17.866 59.323 17.6513 59.6683 17.222C60.023 16.7833 60.2003 16.2467 60.2003 15.612C60.2003 14.9867 60.023 14.4593 59.6683 14.03C59.323 13.5913 58.847 13.372 58.2403 13.372C57.643 13.372 57.167 13.5913 56.8123 14.03C56.467 14.4593 56.2943 14.9867 56.2943 15.612C56.2943 16.2467 56.467 16.7833 56.8123 17.222C57.167 17.6513 57.643 17.866 58.2403 17.866ZM69.5417 19H67.6937L65.6217 16.214L64.6837 17.18V19H63.2137V12.238H64.6837V15.5L67.6657 12.238H69.4857L66.6717 15.304L69.5417 19ZM80.2266 19H78.7566V13.526H75.6486V19H74.1786V12.238H80.2266V19ZM85.1876 19.168C84.1423 19.168 83.3023 18.8273 82.6676 18.146C82.0329 17.4553 81.7156 16.6107 81.7156 15.612C81.7156 14.6133 82.0329 13.7733 82.6676 13.092C83.3023 12.4107 84.1423 12.07 85.1876 12.07C86.2423 12.07 87.0869 12.4107 87.7216 13.092C88.3563 13.7733 88.6736 14.6133 88.6736 15.612C88.6736 16.62 88.3563 17.4647 87.7216 18.146C87.0869 18.8273 86.2423 19.168 85.1876 19.168ZM85.1876 17.866C85.7943 17.866 86.2703 17.6513 86.6156 17.222C86.9703 16.7833 87.1476 16.2467 87.1476 15.612C87.1476 14.9867 86.9703 14.4593 86.6156 14.03C86.2703 13.5913 85.7943 13.372 85.1876 13.372C84.5903 13.372 84.1143 13.5913 83.7596 14.03C83.4143 14.4593 83.2416 14.9867 83.2416 15.612C83.2416 16.2467 83.4143 16.7833 83.7596 17.222C84.1143 17.6513 84.5903 17.866 85.1876 17.866ZM89.461 19.168V17.964C89.7503 17.964 89.979 17.7773 90.147 17.404C90.3243 17.0307 90.469 16.4053 90.581 15.528L90.987 12.238H96.209V19H94.739V13.526H92.289L92.051 15.696C91.9203 16.9093 91.645 17.7913 91.225 18.342C90.805 18.8927 90.217 19.168 89.461 19.168ZM99.56 19H97.88L99.546 16.48C99.0793 16.3773 98.6967 16.144 98.398 15.78C98.1087 15.416 97.964 14.954 97.964 14.394C97.964 13.7873 98.16 13.2787 98.552 12.868C98.9533 12.448 99.504 12.238 100.204 12.238H104.068V19H102.598V16.55H101.044L99.56 19ZM100.386 15.262H102.598V13.526H100.386C100.106 13.526 99.882 13.61 99.714 13.778C99.546 13.9367 99.462 14.142 99.462 14.394C99.462 14.6553 99.5413 14.8653 99.7 15.024C99.868 15.1827 100.097 15.262 100.386 15.262Z" fill="#222222"/>
<path d="M0 39C0 33.4772 4.47715 29 10 29H290C295.523 29 300 33.4772 300 39V69C300 74.5228 295.523 79 290 79H10C4.47716 79 0 74.5228 0 69V39Z" fill="#E7EBF5"/>
<path d="M30.144 59H28.816V49.512H22.576V59H21.248V48.328H30.144V59ZM38.7346 58.024C38.0413 58.8027 37.1186 59.192 35.9666 59.192C34.8146 59.192 33.8866 58.8027 33.1826 58.024C32.4893 57.2453 32.1426 56.28 32.1426 55.128C32.1426 53.976 32.4893 53.016 33.1826 52.248C33.8866 51.4693 34.8146 51.08 35.9666 51.08C37.1186 51.08 38.0413 51.4693 38.7346 52.248C39.4386 53.016 39.7906 53.976 39.7906 55.128C39.7906 56.28 39.4386 57.2453 38.7346 58.024ZM34.0786 57.256C34.548 57.832 35.1773 58.12 35.9666 58.12C36.756 58.12 37.38 57.832 37.8386 57.256C38.2973 56.6693 38.5266 55.96 38.5266 55.128C38.5266 54.296 38.2973 53.592 37.8386 53.016C37.38 52.44 36.756 52.152 35.9666 52.152C35.1773 52.152 34.548 52.4453 34.0786 53.032C33.62 53.608 33.3906 54.3067 33.3906 55.128C33.3906 55.96 33.62 56.6693 34.0786 57.256ZM40.8349 60.968V58.008C41.2295 57.9333 41.5389 57.6987 41.7629 57.304C41.9869 56.8987 42.1682 56.1573 42.3069 55.08L42.8029 51.272H48.1789V57.944H49.0749V60.968H47.8749V59H42.0349V60.968H40.8349ZM43.8589 52.328L43.5069 55.224C43.3255 56.5787 42.9522 57.4853 42.3869 57.944H46.9789V52.328H43.8589ZM54.1236 59.192C52.9823 59.192 52.0543 58.808 51.3396 58.04C50.625 57.2613 50.2676 56.2907 50.2676 55.128C50.2676 53.9653 50.625 53 51.3396 52.232C52.0543 51.464 52.9823 51.08 54.1236 51.08C55.3183 51.08 56.2623 51.528 56.9556 52.424L56.1556 53.16C55.665 52.488 55.009 52.152 54.1876 52.152C53.377 52.152 52.7263 52.4293 52.2356 52.984C51.7556 53.5387 51.5156 54.2533 51.5156 55.128C51.5156 56.0027 51.7556 56.7227 52.2356 57.288C52.7263 57.8427 53.377 58.12 54.1876 58.12C54.9983 58.12 55.6543 57.784 56.1556 57.112L56.9556 57.848C56.2623 58.744 55.3183 59.192 54.1236 59.192ZM65.4375 59H63.9015L61.1175 55.528L59.8375 56.792V59H58.6375V51.272H59.8375V55.384L63.9015 51.272H65.4215L61.9975 54.776L65.4375 59ZM72.8883 59H71.6883V58.12C71.0376 58.8347 70.1843 59.192 69.1283 59.192C68.4136 59.192 67.7843 58.9627 67.2403 58.504C66.6963 58.0453 66.4243 57.4213 66.4243 56.632C66.4243 55.8213 66.6909 55.1973 67.2243 54.76C67.7683 54.312 68.4029 54.088 69.1283 54.088C70.2269 54.088 71.0803 54.44 71.6883 55.144V53.752C71.6883 53.24 71.5069 52.84 71.1443 52.552C70.7816 52.264 70.3123 52.12 69.7363 52.12C68.8296 52.12 68.0403 52.4773 67.3683 53.192L66.8083 52.36C67.6296 51.5067 68.6589 51.08 69.8963 51.08C70.7816 51.08 71.5016 51.2933 72.0563 51.72C72.6109 52.1467 72.8883 52.8027 72.8883 53.688V59ZM69.5603 58.328C70.5203 58.328 71.2296 58.008 71.6883 57.368V55.912C71.2296 55.272 70.5203 54.952 69.5603 54.952C69.0056 54.952 68.5469 55.112 68.1843 55.432C67.8323 55.7413 67.6562 56.1467 67.6562 56.648C67.6562 57.1387 67.8323 57.544 68.1843 57.864C68.5469 58.1733 69.0056 58.328 69.5603 58.328ZM78.0298 59.192C76.5471 59.192 75.3844 58.7707 74.5418 57.928L75.1338 57.16C75.8591 57.8533 76.8244 58.2 78.0298 58.2C78.7231 58.2 79.2724 58.0773 79.6778 57.832C80.0938 57.5867 80.3018 57.2613 80.3018 56.856C80.3018 56.0027 79.4911 55.576 77.8698 55.576H76.1418V54.6H77.8698C78.5418 54.6 79.0911 54.4933 79.5178 54.28C79.9444 54.056 80.1578 53.7307 80.1578 53.304C80.1578 52.9413 79.9444 52.648 79.5178 52.424C79.0911 52.1893 78.5524 52.072 77.9018 52.072C76.8244 52.072 75.9604 52.4027 75.3098 53.064L74.6858 52.328C75.4858 51.5067 76.5418 51.096 77.8538 51.096C78.9098 51.0853 79.7631 51.2667 80.4138 51.64C81.0751 52.0027 81.4058 52.5093 81.4058 53.16C81.4058 53.6933 81.1871 54.1253 80.7498 54.456C80.3231 54.7867 79.8484 54.984 79.3258 55.048C79.8698 55.0907 80.3764 55.272 80.8458 55.592C81.3258 55.912 81.5658 56.36 81.5658 56.936C81.5658 57.5973 81.2458 58.1413 80.6058 58.568C79.9764 58.984 79.1178 59.192 78.0298 59.192ZM90.3125 59H88.7765L85.9925 55.528L84.7125 56.792V59H83.5125V51.272H84.7125V55.384L88.7765 51.272H90.2965L86.8725 54.776L90.3125 59ZM97.7633 59H96.5633V58.12C95.9126 58.8347 95.0593 59.192 94.0033 59.192C93.2886 59.192 92.6593 58.9627 92.1153 58.504C91.5713 58.0453 91.2993 57.4213 91.2993 56.632C91.2993 55.8213 91.5659 55.1973 92.0993 54.76C92.6433 54.312 93.2779 54.088 94.0033 54.088C95.1019 54.088 95.9553 54.44 96.5633 55.144V53.752C96.5633 53.24 96.3819 52.84 96.0193 52.552C95.6566 52.264 95.1873 52.12 94.6113 52.12C93.7046 52.12 92.9153 52.4773 92.2433 53.192L91.6833 52.36C92.5046 51.5067 93.5339 51.08 94.7713 51.08C95.6566 51.08 96.3766 51.2933 96.9313 51.72C97.4859 52.1467 97.7633 52.8027 97.7633 53.688V59ZM94.4353 58.328C95.3953 58.328 96.1046 58.008 96.5633 57.368V55.912C96.1046 55.272 95.3953 54.952 94.4353 54.952C93.8806 54.952 93.4219 55.112 93.0593 55.432C92.7073 55.7413 92.5312 56.1467 92.5312 56.648C92.5312 57.1387 92.7073 57.544 93.0593 57.864C93.4219 58.1733 93.8806 58.328 94.4353 58.328Z" fill="#D3D4ED"/>
<path d="M282.676 58H281.324L281.471 54.4063L278.647 56.375L278 55.125L281 53.5L278 51.875L278.647 50.6563L281.471 52.5938L281.324 49H282.676L282.5 52.5938L285.324 50.6563L286 51.875L283 53.5L286 55.125L285.324 56.375L282.5 54.4063L282.676 58Z" fill="#CCCCCC"/>
</svg>
